<?xml version="1.0" encoding="utf-8"?>
<!-- Generator: Adobe Illustrator 24.1.0, SVG Export Plug-In . SVG Version: 6.00 Build 0)  -->
<svg version="1.1" id="Layer_1" xmlns="http://www.w3.org/2000/svg" xmlns:xlink="http://www.w3.org/1999/xlink" x="0px" y="0px"
	 viewBox="0 0 150.24 150.24" style="enable-background:new 0 0 150.24 150.24;" xml:space="preserve">
<path d="M75.12,0.28c-41.33,0-74.84,33.51-74.84,74.84c0,29.56,17.15,55.12,42.03,67.28c-1.51-14.05-7.46-51.29-6.97-52.32
	c-0.01-4.78,10.73-7.38,24.12-8.23c-1.76-3.62-3.01-8.01-1.32-11.48C36.5,55.11,46.93,41.2,46.93,41.2
	c17.73,10.56,14.16,23.26,12.19,27.67c0.05-0.06,0.1-0.13,0.15-0.19c4.27-4.8,1.7-13.08,6.59-15.69
	c-1.41-4.68-7.27-27.61,10.96-33.88c0,0,8.55,21.48-8.14,33.12c2.28-0.2,5.44,0.24,9.92,1.61c0,0,3.93-29.7,32.32-28.83
	c0,0,0.87,23.15-32.32,28.83c0,0-8.88-2.07-12.67,2.61c-2.1,2.6-2.41,7.03-3.01,10.75c9.66-10.73,18.17-3.34,18.17-3.34
	s-4.95,8.61-18.47,4.92c-0.48,2.26-1.22,4.07-2.81,4.7c-2.41,0.96,0.79,4.85,4.46,8.14c21.33-0.68,46.65,2.64,46.65,8.46
	c0,0-4.72,40.88-6.21,53.8c26.61-11.47,45.25-37.93,45.25-68.75C149.96,33.79,116.45,0.28,75.12,0.28z"/>
</svg>
