<?xml version="1.0" encoding="utf-8"?>
<svg version="1.1" id="Layer_1" xmlns="http://www.w3.org/2000/svg" xmlns:xlink="http://www.w3.org/1999/xlink" x="0px" y="0px"
	 viewBox="0 0 401.03 104.52" style="enable-background:new 0 0 401.03 104.52;" xml:space="preserve">
<g>
	<path d="M51.26,14.63c-22.22,0-40.22,18.01-40.22,40.22c0,15.89,9.22,29.62,22.59,36.16c-0.81-7.55-4.01-27.57-3.74-28.12
		c0-2.57,5.77-3.97,12.96-4.42c-0.95-1.95-1.62-4.31-0.71-6.17c-11.63-8.2-6.03-15.67-6.03-15.67c9.53,5.67,7.61,12.5,6.55,14.87
		c0.03-0.03,0.05-0.07,0.08-0.1c2.3-2.58,0.91-7.03,3.54-8.43c-0.76-2.52-3.91-14.84,5.89-18.21c0,0,4.59,11.54-4.37,17.8
		c1.23-0.11,2.93,0.13,5.33,0.86c0,0,2.11-15.96,17.37-15.5c0,0,0.47,12.44-17.37,15.5c0,0-4.77-1.11-6.81,1.4
		c-1.13,1.4-1.29,3.78-1.62,5.78c5.19-5.77,9.77-1.79,9.77-1.79s-2.66,4.63-9.93,2.64c-0.26,1.21-0.66,2.19-1.51,2.53
		c-1.29,0.52,0.42,2.61,2.4,4.38c11.46-0.37,25.07,1.42,25.07,4.55c0,0-2.54,21.97-3.34,28.91c14.3-6.17,24.32-20.39,24.32-36.95
		C91.48,32.64,73.47,14.63,51.26,14.63z"/>
	<path d="M135.69,32.46c-2.41-1.32-5.19-1.98-8.36-1.98h-11.94h-4.43h-4.11v51.97h8.54V62.28h11.94c3.17,0,5.96-0.66,8.36-1.97
		c2.41-1.31,4.28-3.16,5.61-5.56c1.33-2.4,2-5.18,2-8.35s-0.67-5.96-2-8.36C139.97,35.64,138.1,33.78,135.69,32.46z M133.64,50.45
		c-0.58,1.17-1.39,2.07-2.43,2.7c-1.04,0.63-2.25,0.95-3.63,0.95h-12.19V38.66h12.19c1.38,0,2.6,0.32,3.65,0.96
		c1.05,0.64,1.86,1.55,2.43,2.72c0.57,1.17,0.86,2.53,0.86,4.07C134.51,47.94,134.22,49.28,133.64,50.45z"/>
	<path d="M155.44,73.63c-0.45-0.49-0.68-1.19-0.68-2.09V30.47h-8.54v42.25c0,3.12,0.79,5.54,2.38,7.26
		c1.58,1.72,3.81,2.57,6.67,2.57h4.65v-8.19h-2.54C156.53,74.36,155.89,74.12,155.44,73.63z"/>
	<path d="M187.64,46.43c-2.24-1.08-4.93-1.63-8.08-1.63c-2.88,0-5.5,0.47-7.86,1.41c-2.36,0.94-4.27,2.26-5.72,3.95l5.68,4.79
		c1.1-0.81,2.33-1.44,3.72-1.89s2.79-0.68,4.22-0.68c2.24,0,3.97,0.57,5.2,1.72c1.23,1.14,1.84,2.75,1.84,4.83v1.57h-9.61
		c-4.29,0-7.51,0.92-9.65,2.75c-2.14,1.84-3.22,4.59-3.22,8.26c0,3.86,1.06,6.74,3.18,8.63c2.12,1.89,5.31,2.84,9.58,2.84
		c1.69,0,3.25-0.2,4.68-0.59c1.43-0.39,2.65-0.98,3.66-1.77c0.55-0.43,1-0.92,1.38-1.46v3.28h7.9V58.6c0-2.91-0.59-5.39-1.77-7.45
		C191.59,49.09,189.88,47.51,187.64,46.43z M184.66,75.18c-1.32,0.6-3.34,0.89-6.06,0.89c-2.22,0-3.87-0.38-4.97-1.13
		c-1.1-0.75-1.64-1.9-1.64-3.45c0-1.48,0.42-2.57,1.27-3.29s2.12-1.07,3.81-1.07h9.58v5.25C186.64,73.66,185.98,74.59,184.66,75.18z
		"/>
	<path d="M217.46,44.8c-2.31,0-4.32,0.6-6.02,1.79c-1.35,0.94-2.5,2.24-3.49,3.87v-5.12h-8.54v37.1h8.54V59.49
		c0-2.07,0.57-3.67,1.72-4.81c1.14-1.13,2.76-1.7,4.86-1.7c2.19,0,3.88,0.61,5.08,1.82c1.19,1.22,1.79,2.93,1.79,5.15v22.48h8.54
		V59.92c0-4.81-1.09-8.54-3.27-11.17C224.49,46.12,221.42,44.8,217.46,44.8z"/>
	<path d="M244.32,34.55h-8.54v10.79h-3.82v7.47h3.82v19.98c0,3.24,0.73,5.69,2.18,7.35c1.45,1.66,3.74,2.48,6.86,2.48h4.57v-8.18
		h-2.97c-0.69,0-1.22-0.24-1.57-0.73c-0.36-0.49-0.54-1.19-0.54-2.09v-18.8h5.08v-7.47h-5.08V34.55z"/>
	<path d="M277.63,46.63c-1.87-1.22-4.12-1.82-6.74-1.82c-2.1,0-4.01,0.59-5.74,1.77c-1.35,0.92-2.48,2.15-3.41,3.67V30.47h-8.54
		v51.97h8.54v-4.76c0.77,1.51,1.81,2.73,3.15,3.63c1.64,1.11,3.59,1.66,5.83,1.66c2.64,0,4.92-0.61,6.83-1.82
		c1.91-1.21,3.35-2.98,4.34-5.31c0.99-2.32,1.48-5.12,1.48-8.38v-7.01c0-3.31-0.49-6.14-1.47-8.49
		C280.92,49.62,279.5,47.84,277.63,46.63z M274.82,67.46c0,2.45-0.58,4.35-1.75,5.68c-1.17,1.33-2.81,2-4.93,2
		c-1.36,0-2.51-0.26-3.47-0.79c-0.95-0.52-1.68-1.28-2.18-2.27c-0.5-0.99-0.75-2.19-0.75-3.59v-9.22c0-1.41,0.25-2.61,0.75-3.61
		c0.5-1,1.23-1.76,2.18-2.27c0.95-0.51,2.11-0.77,3.47-0.77c2.12,0,3.76,0.69,4.93,2.06c1.17,1.37,1.75,3.31,1.75,5.81V67.46z"/>
	<path d="M310.56,46.68c-2.35-1.25-5.16-1.88-8.45-1.88c-3.29,0-6.11,0.63-8.45,1.88c-2.35,1.25-4.13,3.07-5.36,5.47
		c-1.23,2.39-1.84,5.27-1.84,8.63v6.04c0,3.41,0.61,6.32,1.84,8.74c1.23,2.42,3.01,4.26,5.36,5.52c2.35,1.26,5.16,1.89,8.45,1.89
		c3.29,0,6.11-0.63,8.45-1.89c2.35-1.26,4.13-3.09,5.36-5.49c1.23-2.39,1.84-5.28,1.84-8.67v-6.15c0-3.36-0.61-6.24-1.84-8.63
		C314.69,49.75,312.91,47.93,310.56,46.68z M309.22,66.93c0,2.5-0.62,4.44-1.86,5.81c-1.24,1.37-2.99,2.05-5.25,2.05
		c-2.29,0-4.04-0.68-5.27-2.05c-1.23-1.37-1.84-3.31-1.84-5.81v-6.15c0-2.48,0.62-4.4,1.86-5.75c1.24-1.36,2.99-2.04,5.25-2.04
		s4.02,0.68,5.25,2.04c1.24,1.36,1.86,3.28,1.86,5.75V66.93z"/>
	<path d="M344.96,46.68c-2.35-1.25-5.16-1.88-8.45-1.88c-3.29,0-6.11,0.63-8.45,1.88c-2.35,1.25-4.13,3.07-5.36,5.47
		c-1.23,2.39-1.84,5.27-1.84,8.63v6.04c0,3.41,0.61,6.32,1.84,8.74c1.23,2.42,3.01,4.26,5.36,5.52c2.35,1.26,5.16,1.89,8.45,1.89
		c3.29,0,6.11-0.63,8.45-1.89c2.35-1.26,4.13-3.09,5.36-5.49c1.23-2.39,1.84-5.28,1.84-8.67v-6.15c0-3.36-0.61-6.24-1.84-8.63
		C349.09,49.75,347.3,47.93,344.96,46.68z M343.62,66.93c0,2.5-0.62,4.44-1.86,5.81c-1.24,1.37-2.99,2.05-5.25,2.05
		c-2.29,0-4.04-0.68-5.27-2.05c-1.23-1.37-1.84-3.31-1.84-5.81v-6.15c0-2.48,0.62-4.4,1.86-5.75c1.24-1.36,2.99-2.04,5.25-2.04
		s4.02,0.68,5.25,2.04c1.24,1.36,1.86,3.28,1.86,5.75V66.93z"/>
	<polygon points="380.05,82.44 389.67,82.44 376.39,59.25 387.84,45.34 378.37,45.34 364.86,62.7 364.86,30.47 356.32,30.47 
		356.32,82.44 364.86,82.44 364.86,73.27 370.93,65.89 	"/>
</g>
</svg>
