<svg xmlns="http://www.w3.org/2000/svg" viewBox="0 0 401.03 104.52"><path d="M51.26 14.63c-22.22 0-40.22 18.01-40.22 40.22 0 15.89 9.22 29.62 22.59 36.16-.81-7.55-4.01-27.57-3.74-28.12 0-2.57 5.77-3.97 12.96-4.42-.95-1.95-1.62-4.31-.71-6.17-11.63-8.2-6.03-15.67-6.03-15.67 9.53 5.67 7.61 12.5 6.55 14.87.03-.03.05-.07.08-.1 2.3-2.58.91-7.03 3.54-8.43-.76-2.52-3.91-14.84 5.89-18.21 0 0 4.59 11.54-4.37 17.8 1.23-.11 2.93.13 5.33.86 0 0 2.11-15.96 17.37-15.5 0 0 .47 12.44-17.37 15.5 0 0-4.77-1.11-6.81 1.4-1.13 1.4-1.29 3.78-1.62 5.78 5.19-5.77 9.77-1.79 9.77-1.79s-2.66 4.63-9.93 2.64c-.26 1.21-.66 2.19-1.51 2.53-1.29.52.42 2.61 2.4 4.38 11.46-.37 25.07 1.42 25.07 4.55l-3.34 28.91c14.3-6.17 24.32-20.39 24.32-36.95 0-22.23-18.01-40.24-40.22-40.24zm84.43 17.83c-2.41-1.32-5.19-1.98-8.36-1.98h-11.94-4.43-4.11v51.97h8.54V62.28h11.94c3.17 0 5.96-.66 8.36-1.97 2.41-1.31 4.28-3.16 5.61-5.56s2-5.18 2-8.35-.67-5.96-2-8.36a13.95 13.95 0 0 0-5.61-5.58zm-2.05 17.99c-.58 1.17-1.39 2.07-2.43 2.7s-2.25.95-3.63.95h-12.19V38.66h12.19c1.38 0 2.6.32 3.65.96s1.86 1.55 2.43 2.72.86 2.53.86 4.07c-.01 1.53-.3 2.87-.88 4.04zm21.8 23.18c-.45-.49-.68-1.19-.68-2.09V30.47h-8.54v42.25c0 3.12.79 5.54 2.38 7.26 1.58 1.72 3.81 2.57 6.67 2.57h4.65v-8.19h-2.54c-.85 0-1.49-.24-1.94-.73zm32.2-27.2c-2.24-1.08-4.93-1.63-8.08-1.63-2.88 0-5.5.47-7.86 1.41s-4.27 2.26-5.72 3.95l5.68 4.79c1.1-.81 2.33-1.44 3.72-1.89s2.79-.68 4.22-.68c2.24 0 3.97.57 5.2 1.72 1.23 1.14 1.84 2.75 1.84 4.83v1.57h-9.61c-4.29 0-7.51.92-9.65 2.75-2.14 1.84-3.22 4.59-3.22 8.26 0 3.86 1.06 6.74 3.18 8.63s5.31 2.84 9.58 2.84c1.69 0 3.25-.2 4.68-.59s2.65-.98 3.66-1.77c.55-.43 1-.92 1.38-1.46v3.28h7.9V58.6c0-2.91-.59-5.39-1.77-7.45s-2.89-3.64-5.13-4.72zm-2.98 28.75c-1.32.6-3.34.89-6.06.89-2.22 0-3.87-.38-4.97-1.13s-1.64-1.9-1.64-3.45c0-1.48.42-2.57 1.27-3.29s2.12-1.07 3.81-1.07h9.58v5.25c-.01 1.28-.67 2.21-1.99 2.8zm32.8-30.38c-2.31 0-4.32.6-6.02 1.79-1.35.94-2.5 2.24-3.49 3.87v-5.12h-8.54v37.1h8.54V59.49c0-2.07.57-3.67 1.72-4.81 1.14-1.13 2.76-1.7 4.86-1.7 2.19 0 3.88.61 5.08 1.82 1.19 1.22 1.79 2.93 1.79 5.15v22.48h8.54V59.92c0-4.81-1.09-8.54-3.27-11.17s-5.25-3.95-9.21-3.95zm26.86-10.25h-8.54v10.79h-3.82v7.47h3.82v19.98c0 3.24.73 5.69 2.18 7.35s3.74 2.48 6.86 2.48h4.57v-8.18h-2.97c-.69 0-1.22-.24-1.57-.73-.36-.49-.54-1.19-.54-2.09v-18.8h5.08v-7.47h-5.08v-10.8zm33.31 12.08c-1.87-1.22-4.12-1.82-6.74-1.82-2.1 0-4.01.59-5.74 1.77-1.35.92-2.48 2.15-3.41 3.67V30.47h-8.54v51.97h8.54v-4.76c.77 1.51 1.81 2.73 3.15 3.63 1.64 1.11 3.59 1.66 5.83 1.66 2.64 0 4.92-.61 6.83-1.82s3.35-2.98 4.34-5.31c.99-2.32 1.48-5.12 1.48-8.38v-7.01c0-3.31-.49-6.14-1.47-8.49-.98-2.34-2.4-4.12-4.27-5.33zm-2.81 20.83c0 2.45-.58 4.35-1.75 5.68s-2.81 2-4.93 2c-1.36 0-2.51-.26-3.47-.79a5.2 5.2 0 0 1-2.18-2.27c-.5-.99-.75-2.19-.75-3.59v-9.22c0-1.41.25-2.61.75-3.61s1.23-1.76 2.18-2.27 2.11-.77 3.47-.77c2.12 0 3.76.69 4.93 2.06s1.75 3.31 1.75 5.81v6.97zm35.74-20.78c-2.35-1.25-5.16-1.88-8.45-1.88s-6.11.63-8.45 1.88a12.48 12.48 0 0 0-5.36 5.47c-1.23 2.39-1.84 5.27-1.84 8.63v6.04c0 3.41.61 6.32 1.84 8.74s3.01 4.26 5.36 5.52 5.16 1.89 8.45 1.89 6.11-.63 8.45-1.89c2.35-1.26 4.13-3.09 5.36-5.49 1.23-2.39 1.84-5.28 1.84-8.67v-6.15c0-3.36-.61-6.24-1.84-8.63s-3.01-4.21-5.36-5.46zm-1.34 20.25c0 2.5-.62 4.44-1.86 5.81s-2.99 2.05-5.25 2.05c-2.29 0-4.04-.68-5.27-2.05S295 69.43 295 66.93v-6.15c0-2.48.62-4.4 1.86-5.75 1.24-1.36 2.99-2.04 5.25-2.04s4.02.68 5.25 2.04c1.24 1.36 1.86 3.28 1.86 5.75v6.15zm35.74-20.25c-2.35-1.25-5.16-1.88-8.45-1.88s-6.11.63-8.45 1.88a12.48 12.48 0 0 0-5.36 5.47c-1.23 2.39-1.84 5.27-1.84 8.63v6.04c0 3.41.61 6.32 1.84 8.74s3.01 4.26 5.36 5.52 5.16 1.89 8.45 1.89 6.11-.63 8.45-1.89c2.35-1.26 4.13-3.09 5.36-5.49 1.23-2.39 1.84-5.28 1.84-8.67v-6.15c0-3.36-.61-6.24-1.84-8.63s-3.02-4.21-5.36-5.46zm-1.34 20.25c0 2.5-.62 4.44-1.86 5.81s-2.99 2.05-5.25 2.05c-2.29 0-4.04-.68-5.27-2.05s-1.84-3.31-1.84-5.81v-6.15c0-2.48.62-4.4 1.86-5.75 1.24-1.36 2.99-2.04 5.25-2.04s4.02.68 5.25 2.04c1.24 1.36 1.86 3.28 1.86 5.75v6.15zm36.43 15.51h9.62l-13.28-23.19 11.45-13.91h-9.47L364.86 62.7V30.47h-8.54v51.97h8.54v-9.17l6.07-7.38z"/></svg>